<?xml version="1.0" standalone="no"?>
<!DOCTYPE svg PUBLIC "-//W3C//DTD SVG 20010904//EN"
 "http://www.w3.org/TR/2001/REC-SVG-20010904/DTD/svg10.dtd">
<svg version="1.0" xmlns="http://www.w3.org/2000/svg"
 width="700.000000pt" height="700.000000pt" viewBox="0 0 700.000000 700.000000"
 preserveAspectRatio="xMidYMid meet">
<metadata>
Created by potrace 1.11, written by Peter Selinger 2001-2013
</metadata>
<g transform="translate(0.000000,700.000000) scale(0.100000,-0.100000)"
fill="#000000" stroke="none">
<path d="M2423 6689 c-52 -12 -126 -76 -146 -128 -41 -101 -22 -163 97 -321
181 -241 862 -1155 884 -1187 l22 -31 0 -560 0 -561 -212 123 c-502 289 -627
362 -693 400 l-69 41 -92 215 c-51 118 -103 238 -115 265 -11 28 -98 228 -191
445 -93 217 -189 440 -213 495 -70 160 -131 214 -241 215 -128 0 -224 -95
-224 -222 0 -44 18 -95 126 -348 118 -276 146 -339 180 -415 24 -55 114 -267
114 -271 0 -2 -35 18 -77 43 -43 25 -98 57 -123 71 -25 14 -125 72 -223 129
-195 112 -239 127 -326 103 -61 -16 -134 -90 -149 -152 -22 -85 6 -179 66
-229 16 -13 157 -98 315 -189 157 -91 285 -166 284 -167 -7 -6 -90 -17 -377
-48 -103 -11 -157 -18 -170 -20 -8 -2 -46 -6 -85 -10 -38 -4 -78 -9 -88 -11
-10 -2 -46 -6 -80 -9 -34 -3 -73 -8 -87 -10 -14 -2 -47 -6 -75 -10 -95 -11
-119 -19 -162 -51 -87 -65 -113 -196 -59 -288 53 -90 123 -122 249 -111 45 3
91 8 102 10 11 2 40 7 65 9 25 3 83 10 130 15 47 6 110 13 140 16 30 3 66 8
80 10 14 2 50 7 80 10 30 3 66 7 80 10 14 2 52 7 85 10 70 6 139 15 175 21 14
2 56 7 95 10 38 4 76 8 85 9 8 2 44 6 80 10 36 4 76 9 90 11 14 2 48 7 75 9
28 3 66 7 85 9 19 3 62 8 95 11 l60 7 240 -139 c132 -77 344 -200 472 -273
181 -105 230 -137 221 -147 -6 -7 -14 -13 -18 -13 -4 0 -52 -26 -106 -58 -55
-33 -260 -152 -456 -266 -346 -200 -359 -207 -400 -201 -46 6 -83 11 -163 20
-27 3 -66 7 -85 10 -71 8 -136 16 -170 21 -19 2 -53 6 -75 9 -22 2 -78 9 -125
14 -47 6 -110 13 -140 17 -30 3 -66 7 -80 9 -14 2 -50 6 -80 9 -30 4 -71 8
-90 11 -19 3 -60 7 -90 10 -30 3 -66 8 -80 10 -14 2 -70 9 -125 15 -55 6 -113
12 -130 15 -178 23 -202 23 -262 0 -43 -17 -107 -79 -122 -118 -33 -85 -13
-183 49 -245 45 -46 104 -68 205 -77 39 -3 81 -7 95 -10 14 -2 50 -7 80 -10
30 -3 66 -7 80 -10 14 -2 52 -6 85 -10 33 -3 98 -10 145 -16 47 -6 101 -12
120 -14 19 -2 53 -6 75 -9 22 -3 58 -7 80 -10 22 -3 65 -8 95 -12 30 -4 64 -6
74 -6 16 1 17 -1 5 -12 -8 -7 -141 -86 -296 -175 -295 -170 -338 -202 -360
-276 -42 -134 56 -278 195 -290 64 -5 108 10 204 68 40 24 98 57 128 74 30 16
80 45 110 63 30 18 98 58 150 88 52 30 98 56 103 59 8 5 -21 -73 -60 -157 -14
-30 -38 -86 -53 -125 -16 -38 -35 -83 -43 -100 -8 -16 -68 -154 -133 -305
-128 -299 -142 -355 -111 -430 50 -117 185 -170 299 -118 33 15 66 40 84 64
17 21 68 127 113 234 89 210 135 317 157 365 8 17 104 239 213 493 l199 464
178 102 c99 56 253 145 344 198 91 53 228 132 305 176 l140 81 3 -549 2 -549
-278 -373 c-153 -205 -372 -499 -487 -653 -115 -154 -219 -298 -232 -321 -33
-59 -33 -135 1 -201 69 -137 253 -165 358 -55 29 31 497 653 602 800 l31 44 5
-399 c3 -219 9 -407 14 -418 19 -43 59 -86 103 -112 111 -65 262 -14 316 106
8 18 14 155 17 424 l5 398 265 -356 c348 -468 372 -498 415 -525 73 -45 189
-36 258 21 74 61 101 181 61 264 -11 22 -89 132 -174 245 -84 113 -187 250
-228 305 -41 55 -83 112 -93 126 -11 14 -130 173 -264 353 l-245 328 0 539 0
538 58 -31 c31 -17 62 -34 67 -38 10 -8 410 -240 495 -288 25 -14 106 -60 181
-104 l137 -79 45 -107 c51 -121 231 -541 252 -587 7 -16 89 -205 181 -420 92
-214 179 -408 193 -430 16 -24 47 -50 81 -68 48 -25 63 -28 116 -24 34 2 73
12 90 23 44 28 93 85 106 124 28 84 22 103 -167 541 -98 228 -193 449 -211
492 -31 71 -32 76 -12 66 11 -6 134 -77 272 -157 138 -79 267 -154 286 -165
111 -64 185 -76 261 -43 110 47 162 185 114 299 -28 68 -24 65 -580 385 -140
80 -152 88 -133 89 13 1 118 12 173 18 46 6 126 16 165 20 79 10 288 35 335
40 53 5 91 10 220 26 145 18 159 20 194 39 128 65 158 248 58 350 -48 49 -100
71 -165 71 -31 0 -66 -2 -77 -5 -12 -2 -52 -7 -90 -10 -39 -4 -77 -9 -85 -11
-8 -2 -44 -6 -80 -10 -36 -4 -78 -8 -95 -10 -16 -2 -59 -7 -95 -10 -36 -4 -72
-8 -80 -10 -8 -2 -46 -7 -85 -11 -38 -3 -77 -8 -85 -9 -9 -2 -43 -6 -75 -10
-33 -3 -76 -8 -95 -11 -19 -3 -60 -7 -90 -9 -30 -3 -66 -7 -80 -10 -27 -5 -74
-11 -161 -20 -31 -3 -65 -7 -75 -9 -11 -2 -50 -7 -89 -11 -69 -6 -106 -11
-175 -21 -29 -4 -52 5 -139 56 -57 33 -105 60 -107 60 -1 0 -49 28 -106 61
-103 61 -138 82 -201 118 -167 94 -207 117 -237 136 -19 12 -72 44 -118 70
l-83 48 56 33 c31 19 58 34 60 34 3 0 29 16 59 35 30 19 57 35 60 35 3 0 54
29 113 64 60 35 220 127 356 206 l249 143 61 -7 c34 -4 80 -9 102 -11 36 -4
160 -20 240 -30 17 -2 57 -7 90 -10 33 -3 72 -8 87 -11 26 -4 260 -32 328 -38
59 -6 144 -17 170 -21 14 -2 52 -7 85 -10 33 -3 132 -15 220 -26 298 -39 352
-34 422 33 90 87 94 218 11 312 -53 62 -89 72 -316 96 -52 6 -103 12 -115 14
-12 3 -47 7 -77 10 -61 6 -152 16 -190 21 -14 1 -68 8 -120 14 -52 7 -108 14
-125 16 -16 2 -60 7 -97 10 -38 4 -79 10 -93 13 -25 7 -25 7 12 27 21 11 81
45 133 76 52 31 115 67 140 81 46 26 98 56 255 147 109 63 140 91 161 147 43
113 7 222 -93 281 -54 31 -139 39 -190 18 -30 -13 -257 -142 -547 -311 -59
-35 -112 -64 -118 -64 -5 0 -2 12 6 28 8 15 21 43 29 62 8 19 26 61 41 93 14
32 26 60 26 63 0 3 9 24 19 47 11 23 81 186 157 362 124 290 137 325 137 376
-3 203 -257 298 -390 146 -17 -19 -93 -182 -187 -402 -87 -204 -167 -388 -177
-410 -9 -22 -39 -89 -64 -150 -26 -60 -57 -132 -69 -160 -12 -27 -60 -138
-107 -246 l-84 -197 -125 -71 c-69 -40 -132 -76 -140 -81 -19 -12 -229 -133
-283 -163 -37 -21 -127 -73 -175 -102 -60 -36 -203 -115 -207 -115 -3 0 -5
246 -5 548 l1 547 145 195 c656 877 832 1115 853 1155 80 152 -44 332 -222
319 -96 -6 -103 -14 -451 -478 l-321 -430 -5 365 c-5 335 -7 367 -24 394 -73
115 -204 153 -311 90 -44 -26 -65 -48 -92 -97 -16 -30 -19 -71 -23 -393 l-5
-360 -118 160 c-65 88 -123 167 -130 175 -7 8 -91 121 -187 250 -216 289 -197
267 -245 295 -47 28 -113 37 -172 24z"/>
</g>
</svg>
